# xmcd CD database file
#
# Track frame offsets:
#	225
#	13596
#	23798
#	36022
#	50007
#	65610
#	79523
#	90636
#	101588
#	112356
#	122110
#	131876
#	143643
#	155091
#	169319
#	179851
#
# Disc length: 2524 seconds
#
# Revision: 1
# Processed by: cddbd v1.5.1PL2 Copyright (c) Steve Scherf et al.
# Submitted via: CDex 1.51
#
DISCID=e909d910
DTITLE=Bob Marlay - Keep On Moving
DYEAR=1900
DGENRE=Blues
TTITLE0=Trench Town Rock
TTITLE1=No Sympathy
TTITLE2=Do It Twice
TTITLE3=Keep On Moving
TTITLE4=My Cup
TTITLE5=Put It On
TTITLE6=Fussin´ And Fightin
TTITLE7=Corner Stone
TTITLE8=African Herbman
TTITLE9=No Water Can Quensch My Thirst
TTITLE10=Stand Allone
TTITLE11=Brain Washing
TTITLE12=Nice Time
TTITLE13=Conerete Jungle
TTITLE14=Screw Faces
TTITLE15=Satisfy My Soul
EXTD=
EXTT0=
EXTT1=
EXTT2=
EXTT3=
EXTT4=
EXTT5=
EXTT6=
EXTT7=
EXTT8=
EXTT9=
EXTT10=
EXTT11=
EXTT12=
EXTT13=
EXTT14=
EXTT15=
PLAYORDER=
